<svg width="340" height="240" viewBox="0 0 340 240" fill="none" xmlns="http://www.w3.org/2000/svg">
<rect width="340" height="240" rx="32" fill="#917AEB"/>
<path d="M102.332 186V183.712H104.774V173.482L102.552 174.648L101.914 172.58L106.028 170.38H107.172V183.712H109.68V186H102.332ZM117.666 186.22C116.493 186.22 115.481 185.897 114.63 185.252C113.794 184.607 113.149 183.697 112.694 182.524C112.239 181.336 112.012 179.928 112.012 178.3C112.012 176.672 112.239 175.271 112.694 174.098C113.149 172.91 113.794 171.993 114.63 171.348C115.481 170.703 116.493 170.38 117.666 170.38C118.839 170.38 119.851 170.703 120.702 171.348C121.553 171.993 122.205 172.91 122.66 174.098C123.115 175.271 123.342 176.672 123.342 178.3C123.342 179.928 123.115 181.336 122.66 182.524C122.205 183.697 121.553 184.607 120.702 185.252C119.851 185.897 118.839 186.22 117.666 186.22ZM117.666 184.064C118.737 184.064 119.565 183.565 120.152 182.568C120.739 181.556 121.032 180.133 121.032 178.3C121.032 176.467 120.739 175.051 120.152 174.054C119.565 173.042 118.737 172.536 117.666 172.536C116.595 172.536 115.767 173.042 115.18 174.054C114.593 175.051 114.3 176.467 114.3 178.3C114.3 180.133 114.593 181.556 115.18 182.568C115.767 183.565 116.595 184.064 117.666 184.064ZM131.029 186.22C129.856 186.22 128.844 185.897 127.993 185.252C127.157 184.607 126.512 183.697 126.057 182.524C125.603 181.336 125.375 179.928 125.375 178.3C125.375 176.672 125.603 175.271 126.057 174.098C126.512 172.91 127.157 171.993 127.993 171.348C128.844 170.703 129.856 170.38 131.029 170.38C132.203 170.38 133.215 170.703 134.065 171.348C134.916 171.993 135.569 172.91 136.023 174.098C136.478 175.271 136.705 176.672 136.705 178.3C136.705 179.928 136.478 181.336 136.023 182.524C135.569 183.697 134.916 184.607 134.065 185.252C133.215 185.897 132.203 186.22 131.029 186.22ZM131.029 184.064C132.1 184.064 132.929 183.565 133.515 182.568C134.102 181.556 134.395 180.133 134.395 178.3C134.395 176.467 134.102 175.051 133.515 174.054C132.929 173.042 132.1 172.536 131.029 172.536C129.959 172.536 129.13 173.042 128.543 174.054C127.957 175.051 127.663 176.467 127.663 178.3C127.663 180.133 127.957 181.556 128.543 182.568C129.13 183.565 129.959 184.064 131.029 184.064ZM138.717 180.83V178.85H143.051V174.45H145.361V178.85H149.739V180.83H145.361V185.076H143.051V180.83H138.717ZM159.047 186V170.6H161.423V183.712H168.639V186H159.047ZM176.605 186.22C175.417 186.22 174.361 185.971 173.437 185.472C172.528 184.959 171.809 184.262 171.281 183.382C170.768 182.502 170.511 181.49 170.511 180.346C170.511 179.129 170.76 178.065 171.259 177.156C171.772 176.232 172.469 175.513 173.349 175C174.244 174.472 175.263 174.201 176.407 174.186C177.404 174.201 178.299 174.45 179.091 174.934C179.898 175.418 180.528 176.078 180.983 176.914C181.452 177.75 181.672 178.711 181.643 179.796L181.621 180.764H172.777C172.909 181.805 173.334 182.634 174.053 183.25C174.786 183.851 175.71 184.152 176.825 184.152C177.397 184.152 177.925 184.057 178.409 183.866C178.908 183.675 179.443 183.331 180.015 182.832L181.159 184.438C180.616 184.966 179.927 185.399 179.091 185.736C178.255 186.059 177.426 186.22 176.605 186.22ZM176.407 176.276C174.427 176.276 173.246 177.171 172.865 178.96H179.333V178.806C179.289 178.322 179.128 177.889 178.849 177.508C178.57 177.127 178.218 176.826 177.793 176.606C177.368 176.386 176.906 176.276 176.407 176.276ZM187.955 186.22C186.987 186.22 186.115 186.051 185.337 185.714C184.56 185.377 183.915 184.878 183.401 184.218L184.941 182.898C185.381 183.411 185.858 183.785 186.371 184.02C186.899 184.24 187.493 184.35 188.153 184.35C188.696 184.35 189.136 184.218 189.473 183.954C189.825 183.69 190.001 183.331 190.001 182.876C190.001 182.495 189.862 182.187 189.583 181.952C189.305 181.732 188.667 181.49 187.669 181.226C186.819 181.006 186.122 180.757 185.579 180.478C185.037 180.199 184.619 179.884 184.325 179.532C183.9 179.004 183.687 178.337 183.687 177.53C183.687 176.885 183.871 176.313 184.237 175.814C184.604 175.315 185.095 174.927 185.711 174.648C186.342 174.355 187.046 174.208 187.823 174.208C188.645 174.208 189.437 174.377 190.199 174.714C190.977 175.037 191.6 175.484 192.069 176.056L190.771 177.486C190.346 177.061 189.869 176.723 189.341 176.474C188.828 176.21 188.359 176.078 187.933 176.078C187.303 176.078 186.811 176.195 186.459 176.43C186.122 176.665 185.953 177.009 185.953 177.464C185.968 177.86 186.129 178.183 186.437 178.432C186.745 178.681 187.398 178.931 188.395 179.18C189.129 179.371 189.73 179.583 190.199 179.818C190.683 180.038 191.065 180.295 191.343 180.588C191.637 180.867 191.842 181.189 191.959 181.556C192.077 181.923 192.135 182.333 192.135 182.788C192.135 183.448 191.945 184.042 191.563 184.57C191.197 185.083 190.698 185.487 190.067 185.78C189.437 186.073 188.733 186.22 187.955 186.22ZM198.483 186.22C197.515 186.22 196.642 186.051 195.865 185.714C195.087 185.377 194.442 184.878 193.929 184.218L195.469 182.898C195.909 183.411 196.385 183.785 196.899 184.02C197.427 184.24 198.021 184.35 198.681 184.35C199.223 184.35 199.663 184.218 200.001 183.954C200.353 183.69 200.529 183.331 200.529 182.876C200.529 182.495 200.389 182.187 200.111 181.952C199.832 181.732 199.194 181.49 198.197 181.226C197.346 181.006 196.649 180.757 196.107 180.478C195.564 180.199 195.146 179.884 194.853 179.532C194.427 179.004 194.215 178.337 194.215 177.53C194.215 176.885 194.398 176.313 194.765 175.814C195.131 175.315 195.623 174.927 196.239 174.648C196.869 174.355 197.573 174.208 198.351 174.208C199.172 174.208 199.964 174.377 200.727 174.714C201.504 175.037 202.127 175.484 202.597 176.056L201.299 177.486C200.873 177.061 200.397 176.723 199.869 176.474C199.355 176.21 198.886 176.078 198.461 176.078C197.83 176.078 197.339 176.195 196.987 176.43C196.649 176.665 196.481 177.009 196.481 177.464C196.495 177.86 196.657 178.183 196.965 178.432C197.273 178.681 197.925 178.931 198.923 179.18C199.656 179.371 200.257 179.583 200.727 179.818C201.211 180.038 201.592 180.295 201.871 180.588C202.164 180.867 202.369 181.189 202.487 181.556C202.604 181.923 202.663 182.333 202.663 182.788C202.663 183.448 202.472 184.042 202.091 184.57C201.724 185.083 201.225 185.487 200.595 185.78C199.964 186.073 199.26 186.22 198.483 186.22ZM210.352 186.22C209.223 186.22 208.211 185.963 207.316 185.45C206.436 184.922 205.74 184.211 205.226 183.316C204.713 182.407 204.456 181.373 204.456 180.214C204.456 179.055 204.713 178.029 205.226 177.134C205.74 176.225 206.436 175.513 207.316 175C208.211 174.472 209.223 174.208 210.352 174.208C211.467 174.208 212.464 174.472 213.344 175C214.239 175.513 214.943 176.225 215.456 177.134C215.97 178.029 216.226 179.055 216.226 180.214C216.226 181.373 215.97 182.407 215.456 183.316C214.943 184.211 214.239 184.922 213.344 185.45C212.464 185.963 211.467 186.22 210.352 186.22ZM210.352 184.152C211.042 184.152 211.658 183.983 212.2 183.646C212.743 183.294 213.168 182.825 213.476 182.238C213.784 181.637 213.931 180.962 213.916 180.214C213.931 179.451 213.784 178.777 213.476 178.19C213.168 177.589 212.743 177.119 212.2 176.782C211.658 176.445 211.042 176.276 210.352 176.276C209.663 176.276 209.04 176.452 208.482 176.804C207.94 177.141 207.514 177.611 207.206 178.212C206.898 178.799 206.752 179.466 206.766 180.214C206.752 180.962 206.898 181.637 207.206 182.238C207.514 182.825 207.94 183.294 208.482 183.646C209.04 183.983 209.663 184.152 210.352 184.152ZM218.695 186V174.45H220.961V176.254C221.343 175.682 221.878 175.198 222.567 174.802C223.271 174.406 223.997 174.208 224.745 174.208C227.385 174.208 228.705 175.792 228.705 178.96V186H226.439V179.114C226.439 177.134 225.625 176.188 223.997 176.276C223.425 176.276 222.905 176.401 222.435 176.65C221.981 176.885 221.621 177.207 221.357 177.618C221.093 178.029 220.961 178.491 220.961 179.004V186H218.695ZM235.629 186.22C234.661 186.22 233.789 186.051 233.011 185.714C232.234 185.377 231.589 184.878 231.075 184.218L232.615 182.898C233.055 183.411 233.532 183.785 234.045 184.02C234.573 184.24 235.167 184.35 235.827 184.35C236.37 184.35 236.81 184.218 237.147 183.954C237.499 183.69 237.675 183.331 237.675 182.876C237.675 182.495 237.536 182.187 237.257 181.952C236.979 181.732 236.341 181.49 235.343 181.226C234.493 181.006 233.796 180.757 233.253 180.478C232.711 180.199 232.293 179.884 231.999 179.532C231.574 179.004 231.361 178.337 231.361 177.53C231.361 176.885 231.545 176.313 231.911 175.814C232.278 175.315 232.769 174.927 233.385 174.648C234.016 174.355 234.72 174.208 235.497 174.208C236.319 174.208 237.111 174.377 237.873 174.714C238.651 175.037 239.274 175.484 239.743 176.056L238.445 177.486C238.02 177.061 237.543 176.723 237.015 176.474C236.502 176.21 236.033 176.078 235.607 176.078C234.977 176.078 234.485 176.195 234.133 176.43C233.796 176.665 233.627 177.009 233.627 177.464C233.642 177.86 233.803 178.183 234.111 178.432C234.419 178.681 235.072 178.931 236.069 179.18C236.803 179.371 237.404 179.583 237.873 179.818C238.357 180.038 238.739 180.295 239.017 180.588C239.311 180.867 239.516 181.189 239.633 181.556C239.751 181.923 239.809 182.333 239.809 182.788C239.809 183.448 239.619 184.042 239.237 184.57C238.871 185.083 238.372 185.487 237.741 185.78C237.111 186.073 236.407 186.22 235.629 186.22Z" fill="white"/>
<path d="M100.576 149V129.4H113.68V132.984H104.524V137.268H112.308V140.74H104.524V145.416H113.848V149H100.576ZM118.267 149V129.4H121.879L131.987 143.036C131.838 141.86 131.726 140.637 131.651 139.368C131.595 138.08 131.577 136.596 131.595 134.916V129.4H135.543V149H131.875L121.823 135.588C121.935 136.82 122.019 137.8 122.075 138.528C122.131 139.237 122.169 139.835 122.187 140.32C122.206 140.787 122.215 141.272 122.215 141.776V149H118.267ZM149.649 149.28C148.137 149.28 146.756 149.028 145.505 148.524C144.255 148.001 143.172 147.283 142.257 146.368C141.343 145.453 140.633 144.389 140.129 143.176C139.625 141.944 139.373 140.6 139.373 139.144C139.373 137.725 139.635 136.409 140.157 135.196C140.68 133.964 141.408 132.891 142.341 131.976C143.275 131.061 144.367 130.352 145.617 129.848C146.887 129.344 148.277 129.092 149.789 129.092C151.339 129.092 152.785 129.4 154.129 130.016C155.473 130.632 156.528 131.416 157.293 132.368L154.801 135C154.055 134.291 153.261 133.749 152.421 133.376C151.6 132.984 150.713 132.788 149.761 132.788C148.567 132.788 147.493 133.068 146.541 133.628C145.608 134.169 144.871 134.925 144.329 135.896C143.788 136.848 143.517 137.931 143.517 139.144C143.517 140.357 143.797 141.449 144.357 142.42C144.936 143.391 145.711 144.165 146.681 144.744C147.652 145.323 148.725 145.612 149.901 145.612C150.779 145.612 151.572 145.444 152.281 145.108C152.991 144.753 153.551 144.296 153.961 143.736C154.391 143.157 154.605 142.513 154.605 141.804H149.509V138.388H158.497C158.553 138.705 158.591 139.097 158.609 139.564C158.628 140.012 158.637 140.367 158.637 140.628C158.637 142.327 158.236 143.829 157.433 145.136C156.649 146.443 155.576 147.46 154.213 148.188C152.869 148.916 151.348 149.28 149.649 149.28ZM162.4 149V129.4H166.432V145.332H175.364V149H162.4ZM178.821 149V145.5H182.069V132.9H178.821V129.4H189.377V132.9H186.101V145.5H189.377V149H178.821ZM200.338 149.28C198.527 149.28 196.968 148.953 195.662 148.3C194.374 147.628 193.272 146.667 192.358 145.416L194.906 142.532C195.82 143.801 196.726 144.669 197.622 145.136C198.518 145.584 199.507 145.808 200.59 145.808C201.467 145.808 202.204 145.621 202.802 145.248C203.418 144.875 203.726 144.371 203.726 143.736C203.726 142.971 203.334 142.373 202.55 141.944C201.784 141.496 200.795 141.151 199.582 140.908C197.472 140.46 195.904 139.741 194.878 138.752C193.851 137.763 193.338 136.447 193.338 134.804C193.338 133.665 193.664 132.667 194.318 131.808C194.971 130.931 195.83 130.249 196.894 129.764C197.976 129.279 199.171 129.036 200.478 129.036C202.214 129.036 203.651 129.335 204.79 129.932C205.947 130.511 206.862 131.341 207.534 132.424L204.93 134.972C203.772 133.329 202.298 132.508 200.506 132.508C199.572 132.508 198.816 132.704 198.238 133.096C197.678 133.469 197.398 133.983 197.398 134.636C197.398 135.327 197.724 135.868 198.378 136.26C199.05 136.652 199.946 136.96 201.066 137.184C203.119 137.613 204.743 138.304 205.938 139.256C207.151 140.189 207.758 141.449 207.758 143.036C207.758 144.343 207.44 145.463 206.806 146.396C206.19 147.329 205.322 148.048 204.202 148.552C203.1 149.037 201.812 149.28 200.338 149.28ZM211.646 149V129.4H215.678V137.38H224.078V129.4H228.11V149H224.078V141.076H215.678V149H211.646Z" fill="white"/>
<path d="M184.914 89.4414H186.672V91.1992H184.914V89.4414Z" fill="white"/>
<path d="M150.637 37C149.183 37 148 38.1828 148 39.6367V42.2734H149.758V39.6367C149.758 39.152 150.152 38.7578 150.637 38.7578H154.152V89.4414H150.637C150.152 89.4414 149.758 89.0472 149.758 88.5625V44.0312H148V88.5625C148 90.0164 149.183 91.1992 150.637 91.1992H154.152V97H156.092L158.547 95.9363L161.001 97H162.941V91.1992H183.156V89.4414H155.91V38.7578H191.066V89.4414H188.43V91.1992H192.824V37H150.637ZM161.183 91.1992V95.1632L158.547 94.0206L155.91 95.1632V91.1992H161.183Z" fill="white"/>
<path d="M168.217 54.9442L164.037 65.9198L165.68 66.5454L166.686 63.902H171.341L172.338 66.5438L173.982 65.9232L169.838 54.9426L168.217 54.9442ZM167.356 62.1442L169.024 57.7637L170.677 62.1442H167.356Z" fill="white"/>
<path d="M180.926 59.1499C180.339 58.7759 179.644 58.5582 178.898 58.5582C176.81 58.5582 175.111 60.2568 175.111 62.3446C175.111 64.4324 176.81 66.131 178.898 66.131C179.644 66.131 180.339 65.9132 180.926 65.5393V66.5176H182.684V58.1717H180.926V59.1499ZM178.898 64.373C177.779 64.373 176.869 63.4631 176.869 62.3445C176.869 61.226 177.779 60.3159 178.898 60.3159C180.016 60.3159 180.926 61.226 180.926 62.3445C180.926 63.4631 180.016 64.373 178.898 64.373Z" fill="white"/>
<path d="M159.426 70.3983H187.551V51.0623H159.426V70.3983ZM161.183 52.8201H185.793V68.6404H161.183V52.8201Z" fill="white"/>
<path d="M187.551 40.5156H189.309V42.2734H187.551V40.5156Z" fill="white"/>
<path d="M187.551 44.0312H189.309V45.7891H187.551V44.0312Z" fill="white"/>
</svg>
