<svg width="340" height="240" viewBox="0 0 340 240" fill="none" xmlns="http://www.w3.org/2000/svg">
<rect width="340" height="240" rx="32" fill="#00C0ED"/>
<path d="M198.383 42.076C198.01 41.922 197.579 42.007 197.293 42.293L185 54.586V38C185 37.448 184.553 37 184 37H162C149.317 37 139 47.318 139 60C139 70.883 146.661 80.214 157.114 82.472L144.293 95.293C144.007 95.579 143.921 96.009 144.076 96.383C144.23 96.756 144.596 97 145 97H198C198.553 97 199 96.552 199 96V43C199 42.596 198.757 42.231 198.383 42.076ZM163 39.046C168.003 39.284 172.593 41.279 176.112 44.473L163 57.586V39.046ZM164 61V75.586L161 78.586V61H164ZM166 61H169V70.586L166 73.586V61ZM171 61H174V65.586L171 68.586V61ZM176 61H178.586L176 63.586V61ZM180.586 59H164.414L177.525 45.889C180.24 48.867 182.112 52.633 182.746 56.84L180.586 59ZM178.941 44.473L183 40.414V50.636C181.981 48.356 180.603 46.282 178.941 44.473ZM181.586 39L177.525 43.061C175.697 41.388 173.601 40.017 171.316 39H181.586ZM161 39.051V59H141.051C141.562 48.22 150.22 39.562 161 39.051ZM154 61V79.412C152.951 78.979 151.953 78.458 151 77.869V61H154ZM144 61V70.798C142.257 67.898 141.216 64.55 141.046 61H144ZM146 73.57V61H149V76.485C147.902 75.617 146.903 74.636 146 73.57ZM156 80.113V61H159V80.586L158.84 80.746C157.868 80.6 156.921 80.387 156 80.113ZM197 45.414V88H191C190.447 88 190 88.448 190 89V95H147.414L197 45.414ZM192 95V90H197V95H192Z" fill="white"/>
<path d="M147.25 46.3107V51.2502H148.75V46.0002H150.25V49.0002C150.25 49.1164 150.277 49.2319 150.329 49.3354L151.079 50.8354C151.206 51.0897 151.466 51.2502 151.75 51.2502H152.5V49.7502H152.214L151.75 48.8232V46.0002H153.25V44.5002H147.25C147.051 44.5002 146.86 44.5789 146.72 44.7199L145.22 46.2199L146.28 47.2804L147.25 46.3107Z" fill="white"/>
<path d="M64.576 149V129.4H68.3L74.236 139.088L80.284 129.4H83.84V149H79.892V142.084C79.892 140.945 79.9107 139.891 79.948 138.92C79.9853 137.931 80.0413 136.979 80.116 136.064L75.076 143.876H73.228L68.3 136.12C68.3933 136.979 68.4493 137.893 68.468 138.864C68.5053 139.816 68.524 140.889 68.524 142.084V149H64.576ZM86.698 149L94.37 129.4H98.01L105.654 149H101.51L99.914 144.772H92.298L90.702 149H86.698ZM94.734 138.332L93.558 141.468H98.682L97.478 138.276C97.366 137.996 97.2353 137.632 97.086 137.184C96.9366 136.717 96.7686 136.223 96.582 135.7C96.414 135.177 96.2646 134.683 96.134 134.216C95.91 134.907 95.6766 135.616 95.434 136.344C95.1913 137.072 94.958 137.735 94.734 138.332ZM111.155 149V133.068H105.471V129.4H121.039V133.068H115.187V149H111.155ZM124.541 149V129.4H128.573V137.38H136.973V129.4H141.005V149H136.973V141.076H128.573V149H124.541ZM146.17 149V129.4H159.274V132.984H150.118V137.268H157.902V140.74H150.118V145.416H159.442V149H146.17ZM163.861 149V129.4H167.585L173.521 139.088L179.569 129.4H183.125V149H179.177V142.084C179.177 140.945 179.196 139.891 179.233 138.92C179.27 137.931 179.326 136.979 179.401 136.064L174.361 143.876H172.513L167.585 136.12C167.678 136.979 167.734 137.893 167.753 138.864C167.79 139.816 167.809 140.889 167.809 142.084V149H163.861ZM185.983 149L193.655 129.4H197.295L204.939 149H200.795L199.199 144.772H191.583L189.987 149H185.983ZM194.019 138.332L192.843 141.468H197.967L196.763 138.276C196.651 137.996 196.52 137.632 196.371 137.184C196.222 136.717 196.054 136.223 195.867 135.7C195.699 135.177 195.55 134.683 195.419 134.216C195.195 134.907 194.962 135.616 194.719 136.344C194.476 137.072 194.243 137.735 194.019 138.332ZM210.44 149V133.068H204.756V129.4H220.324V133.068H214.472V149H210.44ZM223.294 149V145.5H226.542V132.9H223.294V129.4H233.85V132.9H230.574V145.5H233.85V149H223.294ZM246.584 149.28C244.68 149.28 242.981 148.851 241.488 147.992C240.013 147.133 238.856 145.948 238.016 144.436C237.176 142.905 236.756 141.141 236.756 139.144C236.756 137.725 237.008 136.409 237.512 135.196C238.035 133.964 238.744 132.891 239.64 131.976C240.555 131.061 241.619 130.352 242.832 129.848C244.064 129.344 245.389 129.092 246.808 129.092C248.208 129.092 249.552 129.391 250.84 129.988C252.147 130.567 253.192 131.351 253.976 132.34L251.428 135.168C250.756 134.459 250.037 133.908 249.272 133.516C248.507 133.124 247.676 132.928 246.78 132.928C245.679 132.928 244.68 133.189 243.784 133.712C242.907 134.235 242.207 134.972 241.684 135.924C241.161 136.857 240.9 137.94 240.9 139.172C240.9 140.441 241.152 141.552 241.656 142.504C242.179 143.437 242.907 144.165 243.84 144.688C244.792 145.192 245.884 145.444 247.116 145.444C248.031 145.444 248.889 145.257 249.692 144.884C250.495 144.511 251.185 144.025 251.764 143.428L253.724 146.592C253.276 147.096 252.669 147.553 251.904 147.964C251.139 148.375 250.289 148.701 249.356 148.944C248.441 149.168 247.517 149.28 246.584 149.28ZM263.677 149.28C261.867 149.28 260.308 148.953 259.001 148.3C257.713 147.628 256.612 146.667 255.697 145.416L258.245 142.532C259.16 143.801 260.065 144.669 260.961 145.136C261.857 145.584 262.847 145.808 263.929 145.808C264.807 145.808 265.544 145.621 266.141 145.248C266.757 144.875 267.065 144.371 267.065 143.736C267.065 142.971 266.673 142.373 265.889 141.944C265.124 141.496 264.135 141.151 262.921 140.908C260.812 140.46 259.244 139.741 258.217 138.752C257.191 137.763 256.677 136.447 256.677 134.804C256.677 133.665 257.004 132.667 257.657 131.808C258.311 130.931 259.169 130.249 260.233 129.764C261.316 129.279 262.511 129.036 263.817 129.036C265.553 129.036 266.991 129.335 268.129 129.932C269.287 130.511 270.201 131.341 270.873 132.424L268.269 134.972C267.112 133.329 265.637 132.508 263.845 132.508C262.912 132.508 262.156 132.704 261.577 133.096C261.017 133.469 260.737 133.983 260.737 134.636C260.737 135.327 261.064 135.868 261.717 136.26C262.389 136.652 263.285 136.96 264.405 137.184C266.459 137.613 268.083 138.304 269.277 139.256C270.491 140.189 271.097 141.449 271.097 143.036C271.097 144.343 270.78 145.463 270.145 146.396C269.529 147.329 268.661 148.048 267.541 148.552C266.44 149.037 265.152 149.28 263.677 149.28Z" fill="white"/>
<path d="M100.332 186V183.712H102.774V173.482L100.552 174.648L99.914 172.58L104.028 170.38H105.172V183.712H107.68V186H100.332ZM115.666 186.22C114.493 186.22 113.481 185.897 112.63 185.252C111.794 184.607 111.149 183.697 110.694 182.524C110.239 181.336 110.012 179.928 110.012 178.3C110.012 176.672 110.239 175.271 110.694 174.098C111.149 172.91 111.794 171.993 112.63 171.348C113.481 170.703 114.493 170.38 115.666 170.38C116.839 170.38 117.851 170.703 118.702 171.348C119.553 171.993 120.205 172.91 120.66 174.098C121.115 175.271 121.342 176.672 121.342 178.3C121.342 179.928 121.115 181.336 120.66 182.524C120.205 183.697 119.553 184.607 118.702 185.252C117.851 185.897 116.839 186.22 115.666 186.22ZM115.666 184.064C116.737 184.064 117.565 183.565 118.152 182.568C118.739 181.556 119.032 180.133 119.032 178.3C119.032 176.467 118.739 175.051 118.152 174.054C117.565 173.042 116.737 172.536 115.666 172.536C114.595 172.536 113.767 173.042 113.18 174.054C112.593 175.051 112.3 176.467 112.3 178.3C112.3 180.133 112.593 181.556 113.18 182.568C113.767 183.565 114.595 184.064 115.666 184.064ZM129.029 186.22C127.856 186.22 126.844 185.897 125.993 185.252C125.157 184.607 124.512 183.697 124.057 182.524C123.603 181.336 123.375 179.928 123.375 178.3C123.375 176.672 123.603 175.271 124.057 174.098C124.512 172.91 125.157 171.993 125.993 171.348C126.844 170.703 127.856 170.38 129.029 170.38C130.203 170.38 131.215 170.703 132.065 171.348C132.916 171.993 133.569 172.91 134.023 174.098C134.478 175.271 134.705 176.672 134.705 178.3C134.705 179.928 134.478 181.336 134.023 182.524C133.569 183.697 132.916 184.607 132.065 185.252C131.215 185.897 130.203 186.22 129.029 186.22ZM129.029 184.064C130.1 184.064 130.929 183.565 131.515 182.568C132.102 181.556 132.395 180.133 132.395 178.3C132.395 176.467 132.102 175.051 131.515 174.054C130.929 173.042 130.1 172.536 129.029 172.536C127.959 172.536 127.13 173.042 126.543 174.054C125.957 175.051 125.663 176.467 125.663 178.3C125.663 180.133 125.957 181.556 126.543 182.568C127.13 183.565 127.959 184.064 129.029 184.064ZM136.717 180.83V178.85H141.051V174.45H143.361V178.85H147.739V180.83H143.361V185.076H141.051V180.83H136.717ZM157.047 186V170.6H159.423V183.712H166.639V186H157.047ZM174.605 186.22C173.417 186.22 172.361 185.971 171.437 185.472C170.528 184.959 169.809 184.262 169.281 183.382C168.768 182.502 168.511 181.49 168.511 180.346C168.511 179.129 168.76 178.065 169.259 177.156C169.772 176.232 170.469 175.513 171.349 175C172.244 174.472 173.263 174.201 174.407 174.186C175.404 174.201 176.299 174.45 177.091 174.934C177.898 175.418 178.528 176.078 178.983 176.914C179.452 177.75 179.672 178.711 179.643 179.796L179.621 180.764H170.777C170.909 181.805 171.334 182.634 172.053 183.25C172.786 183.851 173.71 184.152 174.825 184.152C175.397 184.152 175.925 184.057 176.409 183.866C176.908 183.675 177.443 183.331 178.015 182.832L179.159 184.438C178.616 184.966 177.927 185.399 177.091 185.736C176.255 186.059 175.426 186.22 174.605 186.22ZM174.407 176.276C172.427 176.276 171.246 177.171 170.865 178.96H177.333V178.806C177.289 178.322 177.128 177.889 176.849 177.508C176.57 177.127 176.218 176.826 175.793 176.606C175.368 176.386 174.906 176.276 174.407 176.276ZM185.955 186.22C184.987 186.22 184.115 186.051 183.337 185.714C182.56 185.377 181.915 184.878 181.401 184.218L182.941 182.898C183.381 183.411 183.858 183.785 184.371 184.02C184.899 184.24 185.493 184.35 186.153 184.35C186.696 184.35 187.136 184.218 187.473 183.954C187.825 183.69 188.001 183.331 188.001 182.876C188.001 182.495 187.862 182.187 187.583 181.952C187.305 181.732 186.667 181.49 185.669 181.226C184.819 181.006 184.122 180.757 183.579 180.478C183.037 180.199 182.619 179.884 182.325 179.532C181.9 179.004 181.687 178.337 181.687 177.53C181.687 176.885 181.871 176.313 182.237 175.814C182.604 175.315 183.095 174.927 183.711 174.648C184.342 174.355 185.046 174.208 185.823 174.208C186.645 174.208 187.437 174.377 188.199 174.714C188.977 175.037 189.6 175.484 190.069 176.056L188.771 177.486C188.346 177.061 187.869 176.723 187.341 176.474C186.828 176.21 186.359 176.078 185.933 176.078C185.303 176.078 184.811 176.195 184.459 176.43C184.122 176.665 183.953 177.009 183.953 177.464C183.968 177.86 184.129 178.183 184.437 178.432C184.745 178.681 185.398 178.931 186.395 179.18C187.129 179.371 187.73 179.583 188.199 179.818C188.683 180.038 189.065 180.295 189.343 180.588C189.637 180.867 189.842 181.189 189.959 181.556C190.077 181.923 190.135 182.333 190.135 182.788C190.135 183.448 189.945 184.042 189.563 184.57C189.197 185.083 188.698 185.487 188.067 185.78C187.437 186.073 186.733 186.22 185.955 186.22ZM196.483 186.22C195.515 186.22 194.642 186.051 193.865 185.714C193.087 185.377 192.442 184.878 191.929 184.218L193.469 182.898C193.909 183.411 194.385 183.785 194.899 184.02C195.427 184.24 196.021 184.35 196.681 184.35C197.223 184.35 197.663 184.218 198.001 183.954C198.353 183.69 198.529 183.331 198.529 182.876C198.529 182.495 198.389 182.187 198.111 181.952C197.832 181.732 197.194 181.49 196.197 181.226C195.346 181.006 194.649 180.757 194.107 180.478C193.564 180.199 193.146 179.884 192.853 179.532C192.427 179.004 192.215 178.337 192.215 177.53C192.215 176.885 192.398 176.313 192.765 175.814C193.131 175.315 193.623 174.927 194.239 174.648C194.869 174.355 195.573 174.208 196.351 174.208C197.172 174.208 197.964 174.377 198.727 174.714C199.504 175.037 200.127 175.484 200.597 176.056L199.299 177.486C198.873 177.061 198.397 176.723 197.869 176.474C197.355 176.21 196.886 176.078 196.461 176.078C195.83 176.078 195.339 176.195 194.987 176.43C194.649 176.665 194.481 177.009 194.481 177.464C194.495 177.86 194.657 178.183 194.965 178.432C195.273 178.681 195.925 178.931 196.923 179.18C197.656 179.371 198.257 179.583 198.727 179.818C199.211 180.038 199.592 180.295 199.871 180.588C200.164 180.867 200.369 181.189 200.487 181.556C200.604 181.923 200.663 182.333 200.663 182.788C200.663 183.448 200.472 184.042 200.091 184.57C199.724 185.083 199.225 185.487 198.595 185.78C197.964 186.073 197.26 186.22 196.483 186.22ZM208.352 186.22C207.223 186.22 206.211 185.963 205.316 185.45C204.436 184.922 203.74 184.211 203.226 183.316C202.713 182.407 202.456 181.373 202.456 180.214C202.456 179.055 202.713 178.029 203.226 177.134C203.74 176.225 204.436 175.513 205.316 175C206.211 174.472 207.223 174.208 208.352 174.208C209.467 174.208 210.464 174.472 211.344 175C212.239 175.513 212.943 176.225 213.456 177.134C213.97 178.029 214.226 179.055 214.226 180.214C214.226 181.373 213.97 182.407 213.456 183.316C212.943 184.211 212.239 184.922 211.344 185.45C210.464 185.963 209.467 186.22 208.352 186.22ZM208.352 184.152C209.042 184.152 209.658 183.983 210.2 183.646C210.743 183.294 211.168 182.825 211.476 182.238C211.784 181.637 211.931 180.962 211.916 180.214C211.931 179.451 211.784 178.777 211.476 178.19C211.168 177.589 210.743 177.119 210.2 176.782C209.658 176.445 209.042 176.276 208.352 176.276C207.663 176.276 207.04 176.452 206.482 176.804C205.94 177.141 205.514 177.611 205.206 178.212C204.898 178.799 204.752 179.466 204.766 180.214C204.752 180.962 204.898 181.637 205.206 182.238C205.514 182.825 205.94 183.294 206.482 183.646C207.04 183.983 207.663 184.152 208.352 184.152ZM216.695 186V174.45H218.961V176.254C219.343 175.682 219.878 175.198 220.567 174.802C221.271 174.406 221.997 174.208 222.745 174.208C225.385 174.208 226.705 175.792 226.705 178.96V186H224.439V179.114C224.439 177.134 223.625 176.188 221.997 176.276C221.425 176.276 220.905 176.401 220.435 176.65C219.981 176.885 219.621 177.207 219.357 177.618C219.093 178.029 218.961 178.491 218.961 179.004V186H216.695ZM233.629 186.22C232.661 186.22 231.789 186.051 231.011 185.714C230.234 185.377 229.589 184.878 229.075 184.218L230.615 182.898C231.055 183.411 231.532 183.785 232.045 184.02C232.573 184.24 233.167 184.35 233.827 184.35C234.37 184.35 234.81 184.218 235.147 183.954C235.499 183.69 235.675 183.331 235.675 182.876C235.675 182.495 235.536 182.187 235.257 181.952C234.979 181.732 234.341 181.49 233.343 181.226C232.493 181.006 231.796 180.757 231.253 180.478C230.711 180.199 230.293 179.884 229.999 179.532C229.574 179.004 229.361 178.337 229.361 177.53C229.361 176.885 229.545 176.313 229.911 175.814C230.278 175.315 230.769 174.927 231.385 174.648C232.016 174.355 232.72 174.208 233.497 174.208C234.319 174.208 235.111 174.377 235.873 174.714C236.651 175.037 237.274 175.484 237.743 176.056L236.445 177.486C236.02 177.061 235.543 176.723 235.015 176.474C234.502 176.21 234.033 176.078 233.607 176.078C232.977 176.078 232.485 176.195 232.133 176.43C231.796 176.665 231.627 177.009 231.627 177.464C231.642 177.86 231.803 178.183 232.111 178.432C232.419 178.681 233.072 178.931 234.069 179.18C234.803 179.371 235.404 179.583 235.873 179.818C236.357 180.038 236.739 180.295 237.017 180.588C237.311 180.867 237.516 181.189 237.633 181.556C237.751 181.923 237.809 182.333 237.809 182.788C237.809 183.448 237.619 184.042 237.237 184.57C236.871 185.083 236.372 185.487 235.741 185.78C235.111 186.073 234.407 186.22 233.629 186.22Z" fill="white"/>
</svg>
