<svg width="340" height="240" viewBox="0 0 340 240" fill="none" xmlns="http://www.w3.org/2000/svg">
<rect width="340" height="240" rx="32" fill="url(#paint0_linear_14_64)"/>
<path d="M101.332 186V183.712H103.774V173.482L101.552 174.648L100.914 172.58L105.028 170.38H106.172V183.712H108.68V186H101.332ZM116.666 186.22C115.493 186.22 114.481 185.897 113.63 185.252C112.794 184.607 112.149 183.697 111.694 182.524C111.239 181.336 111.012 179.928 111.012 178.3C111.012 176.672 111.239 175.271 111.694 174.098C112.149 172.91 112.794 171.993 113.63 171.348C114.481 170.703 115.493 170.38 116.666 170.38C117.839 170.38 118.851 170.703 119.702 171.348C120.553 171.993 121.205 172.91 121.66 174.098C122.115 175.271 122.342 176.672 122.342 178.3C122.342 179.928 122.115 181.336 121.66 182.524C121.205 183.697 120.553 184.607 119.702 185.252C118.851 185.897 117.839 186.22 116.666 186.22ZM116.666 184.064C117.737 184.064 118.565 183.565 119.152 182.568C119.739 181.556 120.032 180.133 120.032 178.3C120.032 176.467 119.739 175.051 119.152 174.054C118.565 173.042 117.737 172.536 116.666 172.536C115.595 172.536 114.767 173.042 114.18 174.054C113.593 175.051 113.3 176.467 113.3 178.3C113.3 180.133 113.593 181.556 114.18 182.568C114.767 183.565 115.595 184.064 116.666 184.064ZM130.029 186.22C128.856 186.22 127.844 185.897 126.993 185.252C126.157 184.607 125.512 183.697 125.057 182.524C124.603 181.336 124.375 179.928 124.375 178.3C124.375 176.672 124.603 175.271 125.057 174.098C125.512 172.91 126.157 171.993 126.993 171.348C127.844 170.703 128.856 170.38 130.029 170.38C131.203 170.38 132.215 170.703 133.065 171.348C133.916 171.993 134.569 172.91 135.023 174.098C135.478 175.271 135.705 176.672 135.705 178.3C135.705 179.928 135.478 181.336 135.023 182.524C134.569 183.697 133.916 184.607 133.065 185.252C132.215 185.897 131.203 186.22 130.029 186.22ZM130.029 184.064C131.1 184.064 131.929 183.565 132.515 182.568C133.102 181.556 133.395 180.133 133.395 178.3C133.395 176.467 133.102 175.051 132.515 174.054C131.929 173.042 131.1 172.536 130.029 172.536C128.959 172.536 128.13 173.042 127.543 174.054C126.957 175.051 126.663 176.467 126.663 178.3C126.663 180.133 126.957 181.556 127.543 182.568C128.13 183.565 128.959 184.064 130.029 184.064ZM137.717 180.83V178.85H142.051V174.45H144.361V178.85H148.739V180.83H144.361V185.076H142.051V180.83H137.717ZM158.047 186V170.6H160.423V183.712H167.639V186H158.047ZM175.605 186.22C174.417 186.22 173.361 185.971 172.437 185.472C171.528 184.959 170.809 184.262 170.281 183.382C169.768 182.502 169.511 181.49 169.511 180.346C169.511 179.129 169.76 178.065 170.259 177.156C170.772 176.232 171.469 175.513 172.349 175C173.244 174.472 174.263 174.201 175.407 174.186C176.404 174.201 177.299 174.45 178.091 174.934C178.898 175.418 179.528 176.078 179.983 176.914C180.452 177.75 180.672 178.711 180.643 179.796L180.621 180.764H171.777C171.909 181.805 172.334 182.634 173.053 183.25C173.786 183.851 174.71 184.152 175.825 184.152C176.397 184.152 176.925 184.057 177.409 183.866C177.908 183.675 178.443 183.331 179.015 182.832L180.159 184.438C179.616 184.966 178.927 185.399 178.091 185.736C177.255 186.059 176.426 186.22 175.605 186.22ZM175.407 176.276C173.427 176.276 172.246 177.171 171.865 178.96H178.333V178.806C178.289 178.322 178.128 177.889 177.849 177.508C177.57 177.127 177.218 176.826 176.793 176.606C176.368 176.386 175.906 176.276 175.407 176.276ZM186.955 186.22C185.987 186.22 185.115 186.051 184.337 185.714C183.56 185.377 182.915 184.878 182.401 184.218L183.941 182.898C184.381 183.411 184.858 183.785 185.371 184.02C185.899 184.24 186.493 184.35 187.153 184.35C187.696 184.35 188.136 184.218 188.473 183.954C188.825 183.69 189.001 183.331 189.001 182.876C189.001 182.495 188.862 182.187 188.583 181.952C188.305 181.732 187.667 181.49 186.669 181.226C185.819 181.006 185.122 180.757 184.579 180.478C184.037 180.199 183.619 179.884 183.325 179.532C182.9 179.004 182.687 178.337 182.687 177.53C182.687 176.885 182.871 176.313 183.237 175.814C183.604 175.315 184.095 174.927 184.711 174.648C185.342 174.355 186.046 174.208 186.823 174.208C187.645 174.208 188.437 174.377 189.199 174.714C189.977 175.037 190.6 175.484 191.069 176.056L189.771 177.486C189.346 177.061 188.869 176.723 188.341 176.474C187.828 176.21 187.359 176.078 186.933 176.078C186.303 176.078 185.811 176.195 185.459 176.43C185.122 176.665 184.953 177.009 184.953 177.464C184.968 177.86 185.129 178.183 185.437 178.432C185.745 178.681 186.398 178.931 187.395 179.18C188.129 179.371 188.73 179.583 189.199 179.818C189.683 180.038 190.065 180.295 190.343 180.588C190.637 180.867 190.842 181.189 190.959 181.556C191.077 181.923 191.135 182.333 191.135 182.788C191.135 183.448 190.945 184.042 190.563 184.57C190.197 185.083 189.698 185.487 189.067 185.78C188.437 186.073 187.733 186.22 186.955 186.22ZM197.483 186.22C196.515 186.22 195.642 186.051 194.865 185.714C194.087 185.377 193.442 184.878 192.929 184.218L194.469 182.898C194.909 183.411 195.385 183.785 195.899 184.02C196.427 184.24 197.021 184.35 197.681 184.35C198.223 184.35 198.663 184.218 199.001 183.954C199.353 183.69 199.529 183.331 199.529 182.876C199.529 182.495 199.389 182.187 199.111 181.952C198.832 181.732 198.194 181.49 197.197 181.226C196.346 181.006 195.649 180.757 195.107 180.478C194.564 180.199 194.146 179.884 193.853 179.532C193.427 179.004 193.215 178.337 193.215 177.53C193.215 176.885 193.398 176.313 193.765 175.814C194.131 175.315 194.623 174.927 195.239 174.648C195.869 174.355 196.573 174.208 197.351 174.208C198.172 174.208 198.964 174.377 199.727 174.714C200.504 175.037 201.127 175.484 201.597 176.056L200.299 177.486C199.873 177.061 199.397 176.723 198.869 176.474C198.355 176.21 197.886 176.078 197.461 176.078C196.83 176.078 196.339 176.195 195.987 176.43C195.649 176.665 195.481 177.009 195.481 177.464C195.495 177.86 195.657 178.183 195.965 178.432C196.273 178.681 196.925 178.931 197.923 179.18C198.656 179.371 199.257 179.583 199.727 179.818C200.211 180.038 200.592 180.295 200.871 180.588C201.164 180.867 201.369 181.189 201.487 181.556C201.604 181.923 201.663 182.333 201.663 182.788C201.663 183.448 201.472 184.042 201.091 184.57C200.724 185.083 200.225 185.487 199.595 185.78C198.964 186.073 198.26 186.22 197.483 186.22ZM209.352 186.22C208.223 186.22 207.211 185.963 206.316 185.45C205.436 184.922 204.74 184.211 204.226 183.316C203.713 182.407 203.456 181.373 203.456 180.214C203.456 179.055 203.713 178.029 204.226 177.134C204.74 176.225 205.436 175.513 206.316 175C207.211 174.472 208.223 174.208 209.352 174.208C210.467 174.208 211.464 174.472 212.344 175C213.239 175.513 213.943 176.225 214.456 177.134C214.97 178.029 215.226 179.055 215.226 180.214C215.226 181.373 214.97 182.407 214.456 183.316C213.943 184.211 213.239 184.922 212.344 185.45C211.464 185.963 210.467 186.22 209.352 186.22ZM209.352 184.152C210.042 184.152 210.658 183.983 211.2 183.646C211.743 183.294 212.168 182.825 212.476 182.238C212.784 181.637 212.931 180.962 212.916 180.214C212.931 179.451 212.784 178.777 212.476 178.19C212.168 177.589 211.743 177.119 211.2 176.782C210.658 176.445 210.042 176.276 209.352 176.276C208.663 176.276 208.04 176.452 207.482 176.804C206.94 177.141 206.514 177.611 206.206 178.212C205.898 178.799 205.752 179.466 205.766 180.214C205.752 180.962 205.898 181.637 206.206 182.238C206.514 182.825 206.94 183.294 207.482 183.646C208.04 183.983 208.663 184.152 209.352 184.152ZM217.695 186V174.45H219.961V176.254C220.343 175.682 220.878 175.198 221.567 174.802C222.271 174.406 222.997 174.208 223.745 174.208C226.385 174.208 227.705 175.792 227.705 178.96V186H225.439V179.114C225.439 177.134 224.625 176.188 222.997 176.276C222.425 176.276 221.905 176.401 221.435 176.65C220.981 176.885 220.621 177.207 220.357 177.618C220.093 178.029 219.961 178.491 219.961 179.004V186H217.695ZM234.629 186.22C233.661 186.22 232.789 186.051 232.011 185.714C231.234 185.377 230.589 184.878 230.075 184.218L231.615 182.898C232.055 183.411 232.532 183.785 233.045 184.02C233.573 184.24 234.167 184.35 234.827 184.35C235.37 184.35 235.81 184.218 236.147 183.954C236.499 183.69 236.675 183.331 236.675 182.876C236.675 182.495 236.536 182.187 236.257 181.952C235.979 181.732 235.341 181.49 234.343 181.226C233.493 181.006 232.796 180.757 232.253 180.478C231.711 180.199 231.293 179.884 230.999 179.532C230.574 179.004 230.361 178.337 230.361 177.53C230.361 176.885 230.545 176.313 230.911 175.814C231.278 175.315 231.769 174.927 232.385 174.648C233.016 174.355 233.72 174.208 234.497 174.208C235.319 174.208 236.111 174.377 236.873 174.714C237.651 175.037 238.274 175.484 238.743 176.056L237.445 177.486C237.02 177.061 236.543 176.723 236.015 176.474C235.502 176.21 235.033 176.078 234.607 176.078C233.977 176.078 233.485 176.195 233.133 176.43C232.796 176.665 232.627 177.009 232.627 177.464C232.642 177.86 232.803 178.183 233.111 178.432C233.419 178.681 234.072 178.931 235.069 179.18C235.803 179.371 236.404 179.583 236.873 179.818C237.357 180.038 237.739 180.295 238.017 180.588C238.311 180.867 238.516 181.189 238.633 181.556C238.751 181.923 238.809 182.333 238.809 182.788C238.809 183.448 238.619 184.042 238.237 184.57C237.871 185.083 237.372 185.487 236.741 185.78C236.111 186.073 235.407 186.22 234.629 186.22Z" fill="white"/>
<path d="M107.904 149.28C106.093 149.28 104.535 148.953 103.228 148.3C101.94 147.628 100.839 146.667 99.924 145.416L102.472 142.532C103.387 143.801 104.292 144.669 105.188 145.136C106.084 145.584 107.073 145.808 108.156 145.808C109.033 145.808 109.771 145.621 110.368 145.248C110.984 144.875 111.292 144.371 111.292 143.736C111.292 142.971 110.9 142.373 110.116 141.944C109.351 141.496 108.361 141.151 107.148 140.908C105.039 140.46 103.471 139.741 102.444 138.752C101.417 137.763 100.904 136.447 100.904 134.804C100.904 133.665 101.231 132.667 101.884 131.808C102.537 130.931 103.396 130.249 104.46 129.764C105.543 129.279 106.737 129.036 108.044 129.036C109.78 129.036 111.217 129.335 112.356 129.932C113.513 130.511 114.428 131.341 115.1 132.424L112.496 134.972C111.339 133.329 109.864 132.508 108.072 132.508C107.139 132.508 106.383 132.704 105.804 133.096C105.244 133.469 104.964 133.983 104.964 134.636C104.964 135.327 105.291 135.868 105.944 136.26C106.616 136.652 107.512 136.96 108.632 137.184C110.685 137.613 112.309 138.304 113.504 139.256C114.717 140.189 115.324 141.449 115.324 143.036C115.324 144.343 115.007 145.463 114.372 146.396C113.756 147.329 112.888 148.048 111.768 148.552C110.667 149.037 109.379 149.28 107.904 149.28ZM127.725 149.28C125.821 149.28 124.122 148.851 122.629 147.992C121.154 147.133 119.997 145.948 119.157 144.436C118.317 142.905 117.897 141.141 117.897 139.144C117.897 137.725 118.149 136.409 118.653 135.196C119.175 133.964 119.885 132.891 120.781 131.976C121.695 131.061 122.759 130.352 123.973 129.848C125.205 129.344 126.53 129.092 127.949 129.092C129.349 129.092 130.693 129.391 131.981 129.988C133.287 130.567 134.333 131.351 135.117 132.34L132.569 135.168C131.897 134.459 131.178 133.908 130.413 133.516C129.647 133.124 128.817 132.928 127.921 132.928C126.819 132.928 125.821 133.189 124.925 133.712C124.047 134.235 123.347 134.972 122.825 135.924C122.302 136.857 122.041 137.94 122.041 139.172C122.041 140.441 122.293 141.552 122.797 142.504C123.319 143.437 124.047 144.165 124.981 144.688C125.933 145.192 127.025 145.444 128.257 145.444C129.171 145.444 130.03 145.257 130.833 144.884C131.635 144.511 132.326 144.025 132.905 143.428L134.865 146.592C134.417 147.096 133.81 147.553 133.045 147.964C132.279 148.375 131.43 148.701 130.497 148.944C129.582 149.168 128.658 149.28 127.725 149.28ZM137.958 149V145.5H141.206V132.9H137.958V129.4H148.514V132.9H145.238V145.5H148.514V149H137.958ZM153.146 149V129.4H166.25V132.984H157.094V137.268H164.878V140.74H157.094V145.416H166.418V149H153.146ZM170.838 149V129.4H174.45L184.558 143.036C184.408 141.86 184.296 140.637 184.222 139.368C184.166 138.08 184.147 136.596 184.166 134.916V129.4H188.114V149H184.446L174.394 135.588C174.506 136.82 174.59 137.8 174.646 138.528C174.702 139.237 174.739 139.835 174.758 140.32C174.776 140.787 174.786 141.272 174.786 141.776V149H170.838ZM201.772 149.28C199.868 149.28 198.169 148.851 196.676 147.992C195.201 147.133 194.044 145.948 193.204 144.436C192.364 142.905 191.944 141.141 191.944 139.144C191.944 137.725 192.196 136.409 192.7 135.196C193.222 133.964 193.932 132.891 194.828 131.976C195.742 131.061 196.806 130.352 198.02 129.848C199.252 129.344 200.577 129.092 201.996 129.092C203.396 129.092 204.74 129.391 206.028 129.988C207.334 130.567 208.38 131.351 209.164 132.34L206.616 135.168C205.944 134.459 205.225 133.908 204.46 133.516C203.694 133.124 202.864 132.928 201.968 132.928C200.866 132.928 199.868 133.189 198.972 133.712C198.094 134.235 197.394 134.972 196.872 135.924C196.349 136.857 196.088 137.94 196.088 139.172C196.088 140.441 196.34 141.552 196.844 142.504C197.366 143.437 198.094 144.165 199.028 144.688C199.98 145.192 201.072 145.444 202.304 145.444C203.218 145.444 204.077 145.257 204.88 144.884C205.682 144.511 206.373 144.025 206.952 143.428L208.912 146.592C208.464 147.096 207.857 147.553 207.092 147.964C206.326 148.375 205.477 148.701 204.544 148.944C203.629 149.168 202.705 149.28 201.772 149.28ZM212.537 149V129.4H225.641V132.984H216.485V137.268H224.269V140.74H216.485V145.416H225.809V149H212.537Z" fill="white"/>
<path d="M196.558 49.5588C193.939 46.0674 188.094 45.1023 180.447 46.8695C180.283 46.4764 180.114 46.0903 179.939 45.7141C180.559 45.0452 180.931 44.1846 180.994 43.2752C181.057 42.3658 180.808 41.462 180.287 40.7138C179.766 39.9656 179.005 39.4179 178.13 39.1615C177.255 38.9051 176.319 38.9553 175.477 39.3039C173.762 37.7763 171.924 37 170.004 37C167.8 37 165.706 38.0171 163.783 40.0231C162.172 41.7034 160.754 44.005 159.561 46.8694C151.914 45.1024 146.069 46.0675 143.451 49.5586C140.472 53.5291 142.176 60.0115 147.997 67C147.679 67.3813 147.372 67.7633 147.075 68.1463C146.23 67.911 145.332 67.9597 144.518 68.285C143.704 68.6102 143.02 69.1939 142.571 69.9462C142.121 70.6985 141.931 71.5777 142.03 72.4485C142.129 73.3193 142.512 74.1334 143.119 74.7655C141.524 78.6838 141.634 82.018 143.451 84.4405C145.212 86.7891 148.433 87.995 152.681 87.9949C154.747 87.9949 157.058 87.7082 159.561 87.1297C160.754 89.9941 162.172 92.2959 163.783 93.9761C165.706 95.9829 167.8 97 170.004 97C172.209 97 174.303 95.9829 176.226 93.9769C177.837 92.2967 179.254 89.9955 180.447 87.1315C180.982 87.2551 181.51 87.3656 182.032 87.463C182.142 88.4044 182.584 89.2761 183.277 89.9226C183.97 90.569 184.87 90.9483 185.817 90.9928C186.764 91.0373 187.696 90.7442 188.447 90.1656C189.197 89.587 189.718 88.7606 189.916 87.8336C192.904 87.4279 195.191 86.265 196.558 84.4414C199.537 80.471 197.833 73.9886 192.012 67C197.833 60.0112 199.537 53.529 196.558 49.5588ZM194.958 50.7587C197.275 53.8474 195.63 59.4263 190.679 65.4705C188.474 63.0688 186.07 60.8571 183.493 58.8587C183.023 55.2196 182.227 51.7601 181.171 48.7566C187.784 47.2816 192.895 48.0083 194.958 50.7589V50.7587ZM179.221 84.7569C176.869 84.1006 174.566 83.2784 172.331 82.2962C174.494 81.1797 176.598 79.9524 178.635 78.6194C179.513 78.0451 180.375 77.4539 181.221 76.8456C180.79 79.5367 180.121 82.1843 179.221 84.757L179.221 84.7569ZM160.787 84.7569C159.888 82.1841 159.218 79.5366 158.787 76.8455C159.631 77.4518 160.493 78.043 161.373 78.6193C163.41 79.9524 165.514 81.1797 167.677 82.2962C165.442 83.2784 163.14 84.1007 160.788 84.757L160.787 84.7569ZM160.787 49.2429C163.139 49.8991 165.441 50.7214 167.677 51.7035C165.514 52.8201 163.41 54.0473 161.373 55.3804C160.495 55.9546 159.633 56.5459 158.787 57.1541C159.218 54.4631 159.888 51.8156 160.788 49.243L160.787 49.2429ZM162.467 76.9454C161.065 76.0286 159.7 75.063 158.401 74.0719C157.872 69.3721 157.872 64.6277 158.401 59.9279C159.7 58.9368 161.066 57.971 162.467 57.0543C164.886 55.47 167.404 54.0413 170.004 52.777C172.605 54.0414 175.122 55.4701 177.541 57.0545C178.943 57.9713 180.308 58.9369 181.607 59.928C181.873 62.276 182.005 64.6371 182.004 67C182.005 69.3629 181.873 71.724 181.607 74.072C180.308 75.0631 178.943 76.0289 177.541 76.9456C175.122 78.5299 172.605 79.9586 170.004 81.223C167.404 79.9586 164.887 78.5299 162.468 76.9455L162.467 76.9454ZM156.222 72.3343C154.237 70.6916 152.373 68.9089 150.643 67C152.373 65.091 154.238 63.3081 156.222 61.665C156.079 63.4204 156.004 65.206 156.004 67C156.004 68.794 156.079 70.579 156.222 72.3344L156.222 72.3343ZM179.221 49.243C180.121 51.8157 180.79 54.4633 181.221 57.1544C180.377 56.5481 179.515 55.9569 178.635 55.3806C176.598 54.0475 174.494 52.8202 172.331 51.7036C174.567 50.7215 176.869 49.8993 179.221 49.243ZM183.787 61.6656C185.771 63.3083 187.636 65.091 189.366 67C187.635 68.909 185.771 70.6919 183.786 72.335C183.93 70.5796 184.004 68.794 184.004 67C184.004 65.206 183.93 63.421 183.787 61.6656ZM179.004 43C179.004 43.3956 178.887 43.7822 178.667 44.1111C178.448 44.44 178.135 44.6964 177.77 44.8478C177.404 44.9991 177.002 45.0387 176.614 44.9616C176.226 44.8844 175.87 44.6939 175.59 44.4142C175.31 44.1345 175.12 43.7781 175.043 43.3902C174.966 43.0022 175.005 42.6001 175.157 42.2346C175.308 41.8692 175.564 41.5568 175.893 41.3371C176.222 41.1173 176.609 41 177.004 41C177.535 41.0006 178.043 41.2115 178.418 41.5865C178.793 41.9614 179.004 42.4698 179.004 43ZM170.004 39C171.313 39 172.603 39.5197 173.851 40.5436C173.324 41.2184 173.028 42.0443 173.007 42.8999C172.985 43.7555 173.238 44.5955 173.729 45.2964C174.22 45.9973 174.923 46.5221 175.735 46.7936C176.546 47.0651 177.424 47.0689 178.238 46.8045C178.322 46.9911 178.406 47.1798 178.488 47.3708C175.578 48.201 172.741 49.2678 170.004 50.5604C167.268 49.2675 164.43 48.2005 161.52 47.3701C163.8 42.0345 166.859 39 170.004 39ZM145.051 50.7587C147.114 48.0087 152.224 47.2815 158.838 48.7568C157.782 51.7598 156.986 55.2185 156.516 58.8576C153.94 60.8565 151.536 63.0684 149.33 65.4701C144.379 59.4265 142.734 53.8475 145.051 50.7587ZM146.004 70C146.4 70 146.787 70.1173 147.116 70.3371C147.444 70.5568 147.701 70.8692 147.852 71.2346C148.004 71.6001 148.043 72.0022 147.966 72.3902C147.889 72.7781 147.698 73.1345 147.419 73.4142C147.139 73.6939 146.783 73.8844 146.395 73.9616C146.007 74.0387 145.605 73.9991 145.239 73.8478C144.874 73.6964 144.561 73.44 144.341 73.1111C144.122 72.7822 144.004 72.3956 144.004 72C144.005 71.4698 144.216 70.9614 144.591 70.5865C144.966 70.2115 145.474 70.0006 146.004 70ZM145.051 83.2414C143.431 81.0811 143.951 78.1664 144.849 75.8289C145.703 76.0873 146.619 76.0523 147.451 75.7297C148.283 75.407 148.984 74.8152 149.441 74.0485C149.897 73.2817 150.085 72.3841 149.972 71.4987C149.86 70.6132 149.455 69.7909 148.821 69.1625C148.987 68.9512 149.156 68.7401 149.329 68.529C151.535 70.931 153.939 73.143 156.516 75.1415C156.986 78.7806 157.782 82.2401 158.838 85.2436C152.225 86.7185 147.114 85.9917 145.051 83.2414ZM170.004 95C166.859 95 163.8 91.9655 161.52 86.6297C164.43 85.7995 167.268 84.7326 170.004 83.4396C172.741 84.7325 175.579 85.7994 178.489 86.6299C176.209 91.9655 173.15 95 170.004 95ZM186.004 89C185.609 89 185.222 88.8827 184.893 88.6629C184.564 88.4432 184.308 88.1308 184.157 87.7654C184.005 87.3999 183.966 86.9978 184.043 86.6098C184.12 86.2219 184.31 85.8655 184.59 85.5858C184.87 85.3061 185.226 85.1156 185.614 85.0384C186.002 84.9613 186.404 85.0009 186.77 85.1522C187.135 85.3036 187.448 85.56 187.667 85.8889C187.887 86.2178 188.004 86.6044 188.004 87C188.004 87.5302 187.793 88.0386 187.418 88.4135C187.043 88.7885 186.535 88.9994 186.004 89ZM194.958 83.2416C193.945 84.5929 192.182 85.4774 189.829 85.8274C189.587 85.0394 189.107 84.3454 188.456 83.8403C187.805 83.3351 187.013 83.0435 186.19 83.0054C185.367 82.9672 184.552 83.1843 183.856 83.627C183.161 84.0697 182.62 84.7164 182.306 85.4786C181.932 85.4076 181.554 85.3291 181.171 85.243C182.227 82.2401 183.023 78.7814 183.493 75.1424C186.069 73.1436 188.473 70.9316 190.679 68.5299C195.63 74.5735 197.275 80.1525 194.958 83.2416Z" fill="white"/>
<path d="M170.004 59C168.422 59 166.875 59.4692 165.56 60.3482C164.244 61.2273 163.219 62.4767 162.613 63.9385C162.008 65.4003 161.849 67.0089 162.158 68.5607C162.467 70.1126 163.229 71.538 164.348 72.6569C165.466 73.7757 166.892 74.5376 168.444 74.8463C169.996 75.155 171.604 74.9965 173.066 74.391C174.528 73.7855 175.777 72.7602 176.656 71.4446C177.535 70.129 178.004 68.5823 178.004 67C178.002 64.879 177.158 62.8456 175.659 61.3458C174.159 59.846 172.125 59.0024 170.004 59ZM170.004 73C168.818 73 167.658 72.6481 166.671 71.9888C165.684 71.3295 164.915 70.3925 164.461 69.2961C164.007 68.1997 163.888 66.9933 164.12 65.8295C164.351 64.6656 164.923 63.5965 165.762 62.7574C166.601 61.9182 167.67 61.3468 168.834 61.1153C169.998 60.8838 171.204 61.0026 172.301 61.4567C173.397 61.9108 174.334 62.6799 174.993 63.6666C175.653 64.6533 176.004 65.8133 176.004 67C176.003 68.5907 175.37 70.1158 174.245 71.2406C173.12 72.3655 171.595 72.9982 170.004 73Z" fill="white"/>
<defs>
<linearGradient id="paint0_linear_14_64" x1="170" y1="0" x2="170" y2="240" gradientUnits="userSpaceOnUse">
<stop stop-color="#FED0D4"/>
<stop offset="1" stop-color="#ECC3C6"/>
</linearGradient>
</defs>
</svg>
