<svg width="340" height="240" viewBox="0 0 340 240" fill="none" xmlns="http://www.w3.org/2000/svg">
<rect width="340" height="240" rx="32" fill="url(#paint0_linear_15_79)"/>
<path d="M200 67.0001C200.022 57.2643 195.295 48.1295 187.335 42.524L187.379 42.4962L186.056 41.6549C176.252 35.4484 163.748 35.4484 153.944 41.6549L152.621 42.5001L152.665 42.5279C144.722 48.1481 140 57.2735 140 67.004C140 76.7344 144.722 85.8599 152.665 91.48L152.621 91.5079L153.944 92.3492C163.748 98.5557 176.252 98.5557 186.056 92.3492L187.379 91.5079L187.335 91.48C195.296 85.8736 200.023 76.7374 200 67.0001ZM197.969 66.0001H189.983C189.799 57.6139 187.315 50.086 183.441 44.7999C184.132 44.4571 184.811 44.0836 185.48 43.6788C193.016 48.6549 197.671 56.9752 197.969 66.0001ZM182.808 91.8877C182.447 92.0738 182.086 92.2569 181.719 92.4258C181.492 92.5259 181.263 92.626 181.034 92.7261C180.688 92.875 180.334 93.0201 179.987 93.1538C179.869 93.1988 179.75 93.2398 179.632 93.2827C180.54 92.5259 181.385 91.6954 182.157 90.7998C182.626 91.023 183.096 91.2398 183.557 91.4942C183.504 91.524 183.457 91.5581 183.4 91.587C183.2 91.691 183 91.7871 182.808 91.8877ZM158.966 92.7251C158.737 92.625 158.508 92.5308 158.281 92.4248C157.914 92.2559 157.553 92.0728 157.192 91.8868C156.992 91.7871 156.797 91.687 156.602 91.587C156.549 91.5581 156.502 91.524 156.445 91.4942C156.903 91.2408 157.374 91.024 157.845 90.8008C158.618 91.6963 159.462 92.5269 160.37 93.2837C160.252 93.2408 160.133 93.1997 160.015 93.1548C159.661 93.0191 159.312 92.8741 158.966 92.7251ZM157.192 42.1119C157.553 41.9259 157.914 41.7433 158.281 41.5738C158.508 41.4742 158.737 41.3741 158.966 41.274C159.312 41.1251 159.666 40.9801 160.013 40.8458C160.131 40.8009 160.25 40.7599 160.368 40.7169C159.46 41.4742 158.615 42.3043 157.843 43.1998C157.374 42.9772 156.904 42.7599 156.443 42.506C156.496 42.4762 156.543 42.442 156.6 42.4132C156.8 42.3092 157 42.213 157.192 42.1119ZM181.034 41.275C181.263 41.3751 181.492 41.4689 181.719 41.5748C182.086 41.7443 182.447 41.9269 182.808 42.1129C183.008 42.213 183.208 42.3131 183.398 42.4132C183.451 42.442 183.498 42.4762 183.555 42.506C183.097 42.7589 182.626 42.9762 182.155 43.1988C181.383 42.3038 180.539 41.4733 179.63 40.7159C179.748 40.7589 179.867 40.7999 179.985 40.8448C180.339 40.9811 180.688 41.1261 181.034 41.275ZM169 94.9551C165.385 94.5205 162.068 92.7339 159.715 89.9551C162.675 88.7789 165.817 88.126 169 88.0259V94.9551ZM171 88.0259C174.184 88.128 177.325 88.7813 180.285 89.958C177.933 92.7373 174.616 94.5235 171 94.958V88.0259ZM173 74.0001V76.0001H167V74.0001H165V75.647C164.421 75.3101 163.877 74.9161 163.376 74.4708C164.051 71.5455 166.473 69.3477 169.45 68.96L169.55 68.9552C169.701 68.9678 169.85 69.0001 170 69.0001C170.15 69.0001 170.3 68.9678 170.449 68.9552H170.493C173.491 69.3248 175.939 71.5269 176.624 74.4688C176.123 74.9146 175.58 75.3091 175 75.647V74.0001H173ZM170.447 66.9552C170.146 66.9337 169.843 66.9337 169.542 66.9552C167.991 66.7183 166.885 65.3267 167.003 63.7623C167.122 62.1983 168.426 60.9893 169.995 60.9893C171.563 60.9893 172.868 62.1983 172.986 63.7623C173.105 65.3267 171.998 66.7183 170.447 66.9552ZM178.161 72.7598C177.274 70.5108 175.556 68.6895 173.361 67.6749C174.888 66.2867 175.406 64.1026 174.663 62.1768C173.921 60.2511 172.071 58.9791 170.007 58.9752C167.943 58.9713 166.089 60.2359 165.339 62.1588C164.59 64.0816 165.098 66.2677 166.62 67.6622C164.432 68.6871 162.72 70.5123 161.837 72.7618C158.897 68.6104 159.543 62.9132 163.337 59.5245C167.131 56.1358 172.865 56.1358 176.659 59.5245C180.454 62.9132 181.099 68.6104 178.159 72.7618L178.161 72.7598ZM169 45.9742C165.817 45.8722 162.675 45.2184 159.715 44.0421C162.068 41.2628 165.385 39.4762 169 39.0421V45.9742ZM171 39.045C174.615 39.4796 177.933 41.2657 180.285 44.045C177.325 45.2213 174.184 45.8741 171 45.9742V39.045ZM158.376 45.6451C161.742 47.0738 165.345 47.8634 169 47.9742V55.0509C163.17 55.545 158.545 60.17 158.051 66.0001H152.016C152.2 57.8531 154.633 50.5841 158.376 45.6461V45.6451ZM158.051 68.0001C158.545 73.8301 163.17 78.4546 169 78.9488V86.0259C165.345 86.1363 161.742 86.9263 158.376 88.355C154.633 83.4161 152.2 76.147 152.016 68.0001H158.051ZM181.624 88.354C178.258 86.9258 174.655 86.1363 171 86.0259V78.9488C176.83 78.4546 181.455 73.8301 181.949 68.0001H187.984C187.8 76.147 185.367 83.4161 181.624 88.354ZM181.949 66.0001C181.455 60.17 176.83 55.545 171 55.0509V47.9742C174.655 47.8639 178.258 47.0738 181.624 45.6451C185.367 50.5841 187.8 57.8531 187.984 66.0001H181.949ZM154.52 43.6822C155.189 44.089 155.869 44.461 156.559 44.8038C152.685 50.086 150.2 57.6139 150.017 66.0001H142.031C142.331 56.9762 146.986 48.6573 154.52 43.6822ZM142.031 68.0001H150.017C150.201 76.3858 152.685 83.9141 156.559 89.1997C155.868 89.5425 155.188 89.9165 154.52 90.3208C146.985 85.3453 142.33 77.025 142.031 68.0001ZM185.48 90.3179C184.811 89.9112 184.131 89.5391 183.441 89.1958C187.315 83.9141 189.799 76.3858 189.983 67.9962H197.969C197.671 77.0211 193.016 85.3418 185.48 90.3179Z" fill="white"/>
<path d="M100.332 186V183.712H102.774V173.482L100.552 174.648L99.914 172.58L104.028 170.38H105.172V183.712H107.68V186H100.332ZM115.666 186.22C114.493 186.22 113.481 185.897 112.63 185.252C111.794 184.607 111.149 183.697 110.694 182.524C110.239 181.336 110.012 179.928 110.012 178.3C110.012 176.672 110.239 175.271 110.694 174.098C111.149 172.91 111.794 171.993 112.63 171.348C113.481 170.703 114.493 170.38 115.666 170.38C116.839 170.38 117.851 170.703 118.702 171.348C119.553 171.993 120.205 172.91 120.66 174.098C121.115 175.271 121.342 176.672 121.342 178.3C121.342 179.928 121.115 181.336 120.66 182.524C120.205 183.697 119.553 184.607 118.702 185.252C117.851 185.897 116.839 186.22 115.666 186.22ZM115.666 184.064C116.737 184.064 117.565 183.565 118.152 182.568C118.739 181.556 119.032 180.133 119.032 178.3C119.032 176.467 118.739 175.051 118.152 174.054C117.565 173.042 116.737 172.536 115.666 172.536C114.595 172.536 113.767 173.042 113.18 174.054C112.593 175.051 112.3 176.467 112.3 178.3C112.3 180.133 112.593 181.556 113.18 182.568C113.767 183.565 114.595 184.064 115.666 184.064ZM129.029 186.22C127.856 186.22 126.844 185.897 125.993 185.252C125.157 184.607 124.512 183.697 124.057 182.524C123.603 181.336 123.375 179.928 123.375 178.3C123.375 176.672 123.603 175.271 124.057 174.098C124.512 172.91 125.157 171.993 125.993 171.348C126.844 170.703 127.856 170.38 129.029 170.38C130.203 170.38 131.215 170.703 132.065 171.348C132.916 171.993 133.569 172.91 134.023 174.098C134.478 175.271 134.705 176.672 134.705 178.3C134.705 179.928 134.478 181.336 134.023 182.524C133.569 183.697 132.916 184.607 132.065 185.252C131.215 185.897 130.203 186.22 129.029 186.22ZM129.029 184.064C130.1 184.064 130.929 183.565 131.515 182.568C132.102 181.556 132.395 180.133 132.395 178.3C132.395 176.467 132.102 175.051 131.515 174.054C130.929 173.042 130.1 172.536 129.029 172.536C127.959 172.536 127.13 173.042 126.543 174.054C125.957 175.051 125.663 176.467 125.663 178.3C125.663 180.133 125.957 181.556 126.543 182.568C127.13 183.565 127.959 184.064 129.029 184.064ZM136.717 180.83V178.85H141.051V174.45H143.361V178.85H147.739V180.83H143.361V185.076H141.051V180.83H136.717ZM157.047 186V170.6H159.423V183.712H166.639V186H157.047ZM174.605 186.22C173.417 186.22 172.361 185.971 171.437 185.472C170.528 184.959 169.809 184.262 169.281 183.382C168.768 182.502 168.511 181.49 168.511 180.346C168.511 179.129 168.76 178.065 169.259 177.156C169.772 176.232 170.469 175.513 171.349 175C172.244 174.472 173.263 174.201 174.407 174.186C175.404 174.201 176.299 174.45 177.091 174.934C177.898 175.418 178.528 176.078 178.983 176.914C179.452 177.75 179.672 178.711 179.643 179.796L179.621 180.764H170.777C170.909 181.805 171.334 182.634 172.053 183.25C172.786 183.851 173.71 184.152 174.825 184.152C175.397 184.152 175.925 184.057 176.409 183.866C176.908 183.675 177.443 183.331 178.015 182.832L179.159 184.438C178.616 184.966 177.927 185.399 177.091 185.736C176.255 186.059 175.426 186.22 174.605 186.22ZM174.407 176.276C172.427 176.276 171.246 177.171 170.865 178.96H177.333V178.806C177.289 178.322 177.128 177.889 176.849 177.508C176.57 177.127 176.218 176.826 175.793 176.606C175.368 176.386 174.906 176.276 174.407 176.276ZM185.955 186.22C184.987 186.22 184.115 186.051 183.337 185.714C182.56 185.377 181.915 184.878 181.401 184.218L182.941 182.898C183.381 183.411 183.858 183.785 184.371 184.02C184.899 184.24 185.493 184.35 186.153 184.35C186.696 184.35 187.136 184.218 187.473 183.954C187.825 183.69 188.001 183.331 188.001 182.876C188.001 182.495 187.862 182.187 187.583 181.952C187.305 181.732 186.667 181.49 185.669 181.226C184.819 181.006 184.122 180.757 183.579 180.478C183.037 180.199 182.619 179.884 182.325 179.532C181.9 179.004 181.687 178.337 181.687 177.53C181.687 176.885 181.871 176.313 182.237 175.814C182.604 175.315 183.095 174.927 183.711 174.648C184.342 174.355 185.046 174.208 185.823 174.208C186.645 174.208 187.437 174.377 188.199 174.714C188.977 175.037 189.6 175.484 190.069 176.056L188.771 177.486C188.346 177.061 187.869 176.723 187.341 176.474C186.828 176.21 186.359 176.078 185.933 176.078C185.303 176.078 184.811 176.195 184.459 176.43C184.122 176.665 183.953 177.009 183.953 177.464C183.968 177.86 184.129 178.183 184.437 178.432C184.745 178.681 185.398 178.931 186.395 179.18C187.129 179.371 187.73 179.583 188.199 179.818C188.683 180.038 189.065 180.295 189.343 180.588C189.637 180.867 189.842 181.189 189.959 181.556C190.077 181.923 190.135 182.333 190.135 182.788C190.135 183.448 189.945 184.042 189.563 184.57C189.197 185.083 188.698 185.487 188.067 185.78C187.437 186.073 186.733 186.22 185.955 186.22ZM196.483 186.22C195.515 186.22 194.642 186.051 193.865 185.714C193.087 185.377 192.442 184.878 191.929 184.218L193.469 182.898C193.909 183.411 194.385 183.785 194.899 184.02C195.427 184.24 196.021 184.35 196.681 184.35C197.223 184.35 197.663 184.218 198.001 183.954C198.353 183.69 198.529 183.331 198.529 182.876C198.529 182.495 198.389 182.187 198.111 181.952C197.832 181.732 197.194 181.49 196.197 181.226C195.346 181.006 194.649 180.757 194.107 180.478C193.564 180.199 193.146 179.884 192.853 179.532C192.427 179.004 192.215 178.337 192.215 177.53C192.215 176.885 192.398 176.313 192.765 175.814C193.131 175.315 193.623 174.927 194.239 174.648C194.869 174.355 195.573 174.208 196.351 174.208C197.172 174.208 197.964 174.377 198.727 174.714C199.504 175.037 200.127 175.484 200.597 176.056L199.299 177.486C198.873 177.061 198.397 176.723 197.869 176.474C197.355 176.21 196.886 176.078 196.461 176.078C195.83 176.078 195.339 176.195 194.987 176.43C194.649 176.665 194.481 177.009 194.481 177.464C194.495 177.86 194.657 178.183 194.965 178.432C195.273 178.681 195.925 178.931 196.923 179.18C197.656 179.371 198.257 179.583 198.727 179.818C199.211 180.038 199.592 180.295 199.871 180.588C200.164 180.867 200.369 181.189 200.487 181.556C200.604 181.923 200.663 182.333 200.663 182.788C200.663 183.448 200.472 184.042 200.091 184.57C199.724 185.083 199.225 185.487 198.595 185.78C197.964 186.073 197.26 186.22 196.483 186.22ZM208.352 186.22C207.223 186.22 206.211 185.963 205.316 185.45C204.436 184.922 203.74 184.211 203.226 183.316C202.713 182.407 202.456 181.373 202.456 180.214C202.456 179.055 202.713 178.029 203.226 177.134C203.74 176.225 204.436 175.513 205.316 175C206.211 174.472 207.223 174.208 208.352 174.208C209.467 174.208 210.464 174.472 211.344 175C212.239 175.513 212.943 176.225 213.456 177.134C213.97 178.029 214.226 179.055 214.226 180.214C214.226 181.373 213.97 182.407 213.456 183.316C212.943 184.211 212.239 184.922 211.344 185.45C210.464 185.963 209.467 186.22 208.352 186.22ZM208.352 184.152C209.042 184.152 209.658 183.983 210.2 183.646C210.743 183.294 211.168 182.825 211.476 182.238C211.784 181.637 211.931 180.962 211.916 180.214C211.931 179.451 211.784 178.777 211.476 178.19C211.168 177.589 210.743 177.119 210.2 176.782C209.658 176.445 209.042 176.276 208.352 176.276C207.663 176.276 207.04 176.452 206.482 176.804C205.94 177.141 205.514 177.611 205.206 178.212C204.898 178.799 204.752 179.466 204.766 180.214C204.752 180.962 204.898 181.637 205.206 182.238C205.514 182.825 205.94 183.294 206.482 183.646C207.04 183.983 207.663 184.152 208.352 184.152ZM216.695 186V174.45H218.961V176.254C219.343 175.682 219.878 175.198 220.567 174.802C221.271 174.406 221.997 174.208 222.745 174.208C225.385 174.208 226.705 175.792 226.705 178.96V186H224.439V179.114C224.439 177.134 223.625 176.188 221.997 176.276C221.425 176.276 220.905 176.401 220.435 176.65C219.981 176.885 219.621 177.207 219.357 177.618C219.093 178.029 218.961 178.491 218.961 179.004V186H216.695ZM233.629 186.22C232.661 186.22 231.789 186.051 231.011 185.714C230.234 185.377 229.589 184.878 229.075 184.218L230.615 182.898C231.055 183.411 231.532 183.785 232.045 184.02C232.573 184.24 233.167 184.35 233.827 184.35C234.37 184.35 234.81 184.218 235.147 183.954C235.499 183.69 235.675 183.331 235.675 182.876C235.675 182.495 235.536 182.187 235.257 181.952C234.979 181.732 234.341 181.49 233.343 181.226C232.493 181.006 231.796 180.757 231.253 180.478C230.711 180.199 230.293 179.884 229.999 179.532C229.574 179.004 229.361 178.337 229.361 177.53C229.361 176.885 229.545 176.313 229.911 175.814C230.278 175.315 230.769 174.927 231.385 174.648C232.016 174.355 232.72 174.208 233.497 174.208C234.319 174.208 235.111 174.377 235.873 174.714C236.651 175.037 237.274 175.484 237.743 176.056L236.445 177.486C236.02 177.061 235.543 176.723 235.015 176.474C234.502 176.21 234.033 176.078 233.607 176.078C232.977 176.078 232.485 176.195 232.133 176.43C231.796 176.665 231.627 177.009 231.627 177.464C231.642 177.86 231.803 178.183 232.111 178.432C232.419 178.681 233.072 178.931 234.069 179.18C234.803 179.371 235.404 179.583 235.873 179.818C236.357 180.038 236.739 180.295 237.017 180.588C237.311 180.867 237.516 181.189 237.633 181.556C237.751 181.923 237.809 182.333 237.809 182.788C237.809 183.448 237.619 184.042 237.237 184.57C236.871 185.083 236.372 185.487 235.741 185.78C235.111 186.073 234.407 186.22 233.629 186.22Z" fill="white"/>
<path d="M55.904 149.28C54.0933 149.28 52.5347 148.953 51.228 148.3C49.94 147.628 48.8387 146.667 47.924 145.416L50.472 142.532C51.3867 143.801 52.292 144.669 53.188 145.136C54.084 145.584 55.0733 145.808 56.156 145.808C57.0333 145.808 57.7707 145.621 58.368 145.248C58.984 144.875 59.292 144.371 59.292 143.736C59.292 142.971 58.9 142.373 58.116 141.944C57.3507 141.496 56.3613 141.151 55.148 140.908C53.0387 140.46 51.4707 139.741 50.444 138.752C49.4173 137.763 48.904 136.447 48.904 134.804C48.904 133.665 49.2307 132.667 49.884 131.808C50.5373 130.931 51.396 130.249 52.46 129.764C53.5427 129.279 54.7373 129.036 56.044 129.036C57.78 129.036 59.2173 129.335 60.356 129.932C61.5133 130.511 62.428 131.341 63.1 132.424L60.496 134.972C59.3387 133.329 57.864 132.508 56.072 132.508C55.1387 132.508 54.3827 132.704 53.804 133.096C53.244 133.469 52.964 133.983 52.964 134.636C52.964 135.327 53.2907 135.868 53.944 136.26C54.616 136.652 55.512 136.96 56.632 137.184C58.6853 137.613 60.3093 138.304 61.504 139.256C62.7173 140.189 63.324 141.449 63.324 143.036C63.324 144.343 63.0067 145.463 62.372 146.396C61.756 147.329 60.888 148.048 59.768 148.552C58.6667 149.037 57.3787 149.28 55.904 149.28ZM75.8367 149.28C74.3994 149.28 73.0741 149.028 71.8607 148.524C70.6474 148.02 69.5927 147.32 68.6967 146.424C67.8194 145.509 67.1287 144.436 66.6247 143.204C66.1394 141.972 65.8967 140.619 65.8967 139.144C65.8967 137.688 66.1394 136.344 66.6247 135.112C67.1287 133.88 67.8194 132.816 68.6967 131.92C69.5927 131.005 70.6474 130.296 71.8607 129.792C73.0741 129.288 74.3994 129.036 75.8367 129.036C77.2554 129.036 78.5714 129.288 79.7847 129.792C80.9981 130.296 82.0434 131.005 82.9207 131.92C83.8167 132.835 84.5074 133.908 84.9927 135.14C85.4967 136.372 85.7487 137.707 85.7487 139.144C85.7487 140.6 85.4967 141.944 84.9927 143.176C84.5074 144.408 83.8167 145.481 82.9207 146.396C82.0434 147.311 80.9981 148.02 79.7847 148.524C78.5714 149.028 77.2554 149.28 75.8367 149.28ZM75.8367 145.444C76.9567 145.444 77.9554 145.173 78.8327 144.632C79.7101 144.091 80.3914 143.344 80.8767 142.392C81.3807 141.44 81.6327 140.357 81.6327 139.144C81.6327 137.931 81.3807 136.857 80.8767 135.924C80.3914 134.972 79.7101 134.225 78.8327 133.684C77.9554 133.124 76.9567 132.844 75.8367 132.844C74.6981 132.844 73.6901 133.115 72.8127 133.656C71.9354 134.197 71.2447 134.944 70.7407 135.896C70.2554 136.848 70.0127 137.931 70.0127 139.144C70.0127 140.376 70.2554 141.468 70.7407 142.42C71.2447 143.353 71.9354 144.091 72.8127 144.632C73.6901 145.173 74.6981 145.444 75.8367 145.444ZM98.0919 149.28C96.1879 149.28 94.4892 148.851 92.9959 147.992C91.5212 147.133 90.3639 145.948 89.5239 144.436C88.6839 142.905 88.2639 141.141 88.2639 139.144C88.2639 137.725 88.5159 136.409 89.0199 135.196C89.5426 133.964 90.2519 132.891 91.1479 131.976C92.0626 131.061 93.1266 130.352 94.3399 129.848C95.5719 129.344 96.8972 129.092 98.3159 129.092C99.7159 129.092 101.06 129.391 102.348 129.988C103.655 130.567 104.7 131.351 105.484 132.34L102.936 135.168C102.264 134.459 101.545 133.908 100.78 133.516C100.015 133.124 99.1839 132.928 98.2879 132.928C97.1866 132.928 96.1879 133.189 95.2919 133.712C94.4146 134.235 93.7146 134.972 93.1919 135.924C92.6692 136.857 92.4079 137.94 92.4079 139.172C92.4079 140.441 92.6599 141.552 93.1639 142.504C93.6866 143.437 94.4146 144.165 95.3479 144.688C96.2999 145.192 97.3919 145.444 98.6239 145.444C99.5386 145.444 100.397 145.257 101.2 144.884C102.003 144.511 102.693 144.025 103.272 143.428L105.232 146.592C104.784 147.096 104.177 147.553 103.412 147.964C102.647 148.375 101.797 148.701 100.864 148.944C99.9492 149.168 99.0252 149.28 98.0919 149.28ZM108.325 149V145.5H111.573V132.9H108.325V129.4H118.881V132.9H115.605V145.5H118.881V149H108.325ZM121.218 149L128.89 129.4H132.53L140.174 149H136.03L134.434 144.772H126.818L125.222 149H121.218ZM129.254 138.332L128.078 141.468H133.202L131.998 138.276C131.886 137.996 131.755 137.632 131.606 137.184C131.456 136.717 131.288 136.223 131.102 135.7C130.934 135.177 130.784 134.683 130.654 134.216C130.43 134.907 130.196 135.616 129.954 136.344C129.711 137.072 129.478 137.735 129.254 138.332ZM143.037 149V129.4H147.069V145.332H156.001V149H143.037ZM174.795 149.28C172.984 149.28 171.425 148.953 170.119 148.3C168.831 147.628 167.729 146.667 166.815 145.416L169.363 142.532C170.277 143.801 171.183 144.669 172.079 145.136C172.975 145.584 173.964 145.808 175.047 145.808C175.924 145.808 176.661 145.621 177.259 145.248C177.875 144.875 178.183 144.371 178.183 143.736C178.183 142.971 177.791 142.373 177.007 141.944C176.241 141.496 175.252 141.151 174.039 140.908C171.929 140.46 170.361 139.741 169.335 138.752C168.308 137.763 167.795 136.447 167.795 134.804C167.795 133.665 168.121 132.667 168.775 131.808C169.428 130.931 170.287 130.249 171.351 129.764C172.433 129.279 173.628 129.036 174.935 129.036C176.671 129.036 178.108 129.335 179.247 129.932C180.404 130.511 181.319 131.341 181.991 132.424L179.387 134.972C178.229 133.329 176.755 132.508 174.963 132.508C174.029 132.508 173.273 132.704 172.695 133.096C172.135 133.469 171.855 133.983 171.855 134.636C171.855 135.327 172.181 135.868 172.835 136.26C173.507 136.652 174.403 136.96 175.523 137.184C177.576 137.613 179.2 138.304 180.395 139.256C181.608 140.189 182.215 141.449 182.215 143.036C182.215 144.343 181.897 145.463 181.263 146.396C180.647 147.329 179.779 148.048 178.659 148.552C177.557 149.037 176.269 149.28 174.795 149.28ZM190.135 149V133.068H184.451V129.4H200.019V133.068H194.167V149H190.135ZM211.501 149.168C209.933 149.168 208.533 148.841 207.301 148.188C206.069 147.516 205.099 146.601 204.389 145.444C203.68 144.287 203.325 142.961 203.325 141.468V129.372H207.385V141.216C207.385 142.037 207.572 142.775 207.945 143.428C208.319 144.063 208.813 144.567 209.429 144.94C210.064 145.313 210.755 145.5 211.501 145.5C212.304 145.5 213.023 145.313 213.657 144.94C214.311 144.567 214.824 144.063 215.197 143.428C215.589 142.775 215.785 142.037 215.785 141.216V129.372H219.677V141.468C219.677 142.961 219.323 144.287 218.613 145.444C217.923 146.601 216.961 147.516 215.729 148.188C214.497 148.841 213.088 149.168 211.501 149.168ZM224.658 149V129.4H232.638C234.542 129.4 236.203 129.82 237.622 130.66C239.059 131.481 240.17 132.629 240.954 134.104C241.757 135.579 242.158 137.277 242.158 139.2C242.158 141.141 241.757 142.849 240.954 144.324C240.17 145.78 239.069 146.928 237.65 147.768C236.231 148.589 234.561 149 232.638 149H224.658ZM232.498 133.068H228.69V145.332H232.498C234.234 145.332 235.597 144.781 236.586 143.68C237.575 142.579 238.07 141.085 238.07 139.2C238.07 137.333 237.566 135.849 236.558 134.748C235.569 133.628 234.215 133.068 232.498 133.068ZM245.044 149V145.5H248.292V132.9H245.044V129.4H255.6V132.9H252.324V145.5H255.6V149H245.044ZM260.232 149V129.4H273.336V132.984H264.18V137.268H271.964V140.74H264.18V145.416H273.504V149H260.232ZM284.252 149.28C282.441 149.28 280.882 148.953 279.576 148.3C278.288 147.628 277.186 146.667 276.272 145.416L278.82 142.532C279.734 143.801 280.64 144.669 281.536 145.136C282.432 145.584 283.421 145.808 284.504 145.808C285.381 145.808 286.118 145.621 286.716 145.248C287.332 144.875 287.64 144.371 287.64 143.736C287.64 142.971 287.248 142.373 286.464 141.944C285.698 141.496 284.709 141.151 283.496 140.908C281.386 140.46 279.818 139.741 278.792 138.752C277.765 137.763 277.252 136.447 277.252 134.804C277.252 133.665 277.578 132.667 278.232 131.808C278.885 130.931 279.744 130.249 280.808 129.764C281.89 129.279 283.085 129.036 284.392 129.036C286.128 129.036 287.565 129.335 288.704 129.932C289.861 130.511 290.776 131.341 291.448 132.424L288.844 134.972C287.686 133.329 286.212 132.508 284.42 132.508C283.486 132.508 282.73 132.704 282.152 133.096C281.592 133.469 281.312 133.983 281.312 134.636C281.312 135.327 281.638 135.868 282.292 136.26C282.964 136.652 283.86 136.96 284.98 137.184C287.033 137.613 288.657 138.304 289.852 139.256C291.065 140.189 291.672 141.449 291.672 143.036C291.672 144.343 291.354 145.463 290.72 146.396C290.104 147.329 289.236 148.048 288.116 148.552C287.014 149.037 285.726 149.28 284.252 149.28Z" fill="white"/>
<defs>
<linearGradient id="paint0_linear_15_79" x1="170" y1="0" x2="170" y2="240" gradientUnits="userSpaceOnUse">
<stop stop-color="#FDDA5F"/>
<stop offset="1" stop-color="#DBBD55"/>
</linearGradient>
</defs>
</svg>
